<?xml version="1.0" encoding="UTF-8" standalone="no"?>
<!DOCTYPE svg PUBLIC "-//W3C//DTD SVG 1.1//EN" "http://www.w3.org/Graphics/SVG/1.1/DTD/svg11.dtd">
<svg width="100%" height="100%" viewBox="0 0 2161 1586" version="1.1" xmlns="http://www.w3.org/2000/svg" xmlns:xlink="http://www.w3.org/1999/xlink" xml:space="preserve" xmlns:serif="http://www.serif.com/" style="fill-rule:evenodd;clip-rule:evenodd;stroke-linejoin:round;stroke-miterlimit:2;">
    <style>
        .axis { fill: #1a1a1a; }
        .axis-dash { fill: rgb(128,128,128); }
        .label { fill: #1a1a1a; }
        @media (prefers-color-scheme: dark) {
            .axis { fill: #e0e0e0; }
            .axis-dash { fill: rgb(180,180,180); }
            .label { fill: #e0e0e0; }
        }
    </style>

    <g transform="matrix(1,0,0,1,-84,-41.2754)">
        <rect id="Artboard1" x="0" y="0" width="2388" height="1668" style="fill:none;"/>
        <g id="Artboard11" serif:id="Artboard1">
            <path class="axis" d="M232.033,240.724C231.633,236.327 234.879,232.433 239.276,232.033C243.673,231.633 247.567,234.879 247.967,239.276C253.783,303.249 248,1440.04 248,1440.04C247.977,1444.46 244.374,1448.02 239.959,1448C235.544,1447.98 231.978,1444.37 232,1439.96C232,1439.96 237.841,304.616 232.033,240.724Z"/>
            <path class="axis" d="M242.583,1448C238.168,1448 234.583,1444.41 234.583,1440C234.583,1435.59 238.168,1432 242.583,1432L2160,1432C2164.41,1432 2168,1435.59 2168,1440C2168,1444.41 2164.41,1448 2160,1448L242.583,1448Z"/>
            <path class="axis-dash" d="M242.583,440C238.168,440 234.583,436.415 234.583,432C234.583,427.585 238.168,424 242.583,424L250.737,424C255.152,424 258.737,427.585 258.737,432C258.737,436.415 255.152,440 250.737,440L242.583,440ZM293.543,440C289.128,440 285.543,436.415 285.543,432C285.543,427.585 289.128,424 293.543,424L309.85,424C314.266,424 317.85,427.585 317.85,432C317.85,436.415 314.266,440 309.85,440L293.543,440ZM352.656,440C348.241,440 344.656,436.415 344.656,432C344.656,427.585 348.241,424 352.656,424L368.964,424C373.379,424 376.964,427.585 376.964,432C376.964,436.415 373.379,440 368.964,440L352.656,440ZM411.771,440C407.355,440 403.771,436.415 403.771,432C403.771,427.585 407.355,424 411.771,424L428.079,424C432.494,424 436.079,427.585 436.079,432C436.079,436.415 432.494,440 428.079,440L411.771,440ZM470.886,440C466.471,440 462.886,436.415 462.886,432C462.886,427.585 466.471,424 470.886,424L487.192,424C491.608,424 495.192,427.585 495.192,432C495.192,436.415 491.608,440 487.192,440L470.886,440ZM529.999,440C525.584,440 521.999,436.415 521.999,432C521.999,427.585 525.584,424 529.999,424L546.307,424C550.723,424 554.307,427.585 554.307,432C554.307,436.415 550.723,440 546.307,440L529.999,440ZM589.111,440C584.696,440 581.111,436.415 581.111,432C581.111,427.585 584.696,424 589.111,424L605.42,424C609.835,424 613.42,427.585 613.42,432C613.42,436.415 609.835,440 605.42,440L589.111,440ZM648.227,440C643.812,440 640.227,436.415 640.227,432C640.227,427.585 643.812,424 648.227,424L664.535,424C668.95,424 672.535,427.585 672.535,432C672.535,436.415 668.95,440 664.535,440L648.227,440ZM707.34,440C702.924,440 699.34,436.415 699.34,432C699.34,427.585 702.924,424 707.34,424L723.645,424C728.061,424 731.645,427.585 731.645,432C731.645,436.415 728.061,440 723.645,440L707.34,440ZM766.456,440C762.041,440 758.456,436.415 758.456,432C758.456,427.585 762.041,424 766.456,424L782.763,424C787.179,424 790.763,427.585 790.763,432C790.763,436.415 787.179,440 782.763,440L766.456,440ZM825.566,440C821.151,440 817.566,436.415 817.566,432C817.566,427.585 821.151,424 825.566,424L841.874,424C846.29,424 849.874,427.585 849.874,432C849.874,436.415 846.29,440 841.874,440L825.566,440ZM884.681,440C880.265,440 876.681,436.415 876.681,432C876.681,427.585 880.265,424 884.681,424L900.988,424C905.403,424 908.988,427.585 908.988,432C908.988,436.415 905.403,440 900.988,440L884.681,440ZM943.795,440C939.38,440 935.795,436.415 935.795,432C935.795,427.585 939.38,424 943.795,424L960.104,424C964.519,424 968.104,427.585 968.104,432C968.104,436.415 964.519,440 960.104,440L943.795,440ZM1002.91,440C998.494,440 994.909,436.415 994.909,432C994.909,427.585 998.494,424 1002.91,424L1019.22,424C1023.63,424 1027.22,427.585 1027.22,432C1027.22,436.415 1023.63,440 1019.22,440L1002.91,440ZM1062.02,440C1057.61,440 1054.02,436.415 1054.02,432C1054.02,427.585 1057.61,424 1062.02,424L1078.33,424C1082.75,424 1086.33,427.585 1086.33,432C1086.33,436.415 1082.75,440 1078.33,440L1062.02,440ZM1121.14,440C1116.72,440 1113.14,436.415 1113.14,432C1113.14,427.585 1116.72,424 1121.14,424L1137.44,424C1141.86,424 1145.44,427.585 1145.44,432C1145.44,436.415 1141.86,440 1137.44,440L1121.14,440ZM1180.25,440C1175.84,440 1172.25,436.415 1172.25,432C1172.25,427.585 1175.84,424 1180.25,424L1196.56,424C1200.97,424 1204.56,427.585 1204.56,432C1204.56,436.415 1200.97,440 1196.56,440L1180.25,440ZM1239.37,440C1234.95,440 1231.37,436.415 1231.37,432C1231.37,427.585 1234.95,424 1239.37,424L1255.67,424C1260.09,424 1263.67,427.585 1263.67,432C1263.67,436.415 1260.09,440 1255.67,440L1239.37,440ZM1298.48,440C1294.07,440 1290.48,436.415 1290.48,432C1290.48,427.585 1294.07,424 1298.48,424L1314.79,424C1319.2,424 1322.79,427.585 1322.79,432C1322.79,436.415 1319.2,440 1314.79,440L1298.48,440ZM1357.59,440C1353.18,440 1349.59,436.415 1349.59,432C1349.59,427.585 1353.18,424 1357.59,424L1373.9,424C1378.32,424 1381.9,427.585 1381.9,432C1381.9,436.415 1378.32,440 1373.9,440L1357.59,440ZM1416.71,440C1412.29,440 1408.71,436.415 1408.71,432C1408.71,427.585 1412.29,424 1416.71,424L1433.01,424C1437.43,424 1441.01,427.585 1441.01,432C1441.01,436.415 1437.43,440 1433.01,440L1416.71,440ZM1475.82,440C1471.4,440 1467.82,436.415 1467.82,432C1467.82,427.585 1471.4,424 1475.82,424L1492.13,424C1496.54,424 1500.13,427.585 1500.13,432C1500.13,436.415 1496.54,440 1492.13,440L1475.82,440ZM1534.93,440C1530.52,440 1526.93,436.415 1526.93,432C1526.93,427.585 1530.52,424 1534.93,424L1551.24,424C1555.66,424 1559.24,427.585 1559.24,432C1559.24,436.415 1555.66,440 1551.24,440L1534.93,440ZM1594.05,440C1589.63,440 1586.05,436.415 1586.05,432C1586.05,427.585 1589.63,424 1594.05,424L1610.36,424C1614.77,424 1618.36,427.585 1618.36,432C1618.36,436.415 1614.77,440 1610.36,440L1594.05,440ZM1653.16,440C1648.75,440 1645.16,436.415 1645.16,432C1645.16,427.585 1648.75,424 1653.16,424L1669.47,424C1673.89,424 1677.47,427.585 1677.47,432C1677.47,436.415 1673.89,440 1669.47,440L1653.16,440ZM1712.28,440C1707.86,440 1704.28,436.415 1704.28,432C1704.28,427.585 1707.86,424 1712.28,424L1728.59,424C1733,424 1736.59,427.585 1736.59,432C1736.59,436.415 1733,440 1728.59,440L1712.28,440ZM1771.39,440C1766.98,440 1763.39,436.415 1763.39,432C1763.39,427.585 1766.98,424 1771.39,424L1787.7,424C1792.11,424 1795.7,427.585 1795.7,432C1795.7,436.415 1792.11,440 1787.7,440L1771.39,440ZM1830.51,440C1826.09,440 1822.51,436.415 1822.51,432C1822.51,427.585 1826.09,424 1830.51,424L1846.81,424C1851.23,424 1854.81,427.585 1854.81,432C1854.81,436.415 1851.23,440 1846.81,440L1830.51,440ZM1889.62,440C1885.2,440 1881.62,436.415 1881.62,432C1881.62,427.585 1885.2,424 1889.62,424L1905.92,424C1910.34,424 1913.92,427.585 1913.92,432C1913.92,436.415 1910.34,440 1905.92,440L1889.62,440ZM1948.73,440C1944.32,440 1940.73,436.415 1940.73,432C1940.73,427.585 1944.32,424 1948.73,424L1965.04,424C1969.46,424 1973.04,427.585 1973.04,432C1973.04,436.415 1969.46,440 1965.04,440L1948.73,440ZM2007.85,440C2003.43,440 1999.85,436.415 1999.85,432C1999.85,427.585 2003.43,424 2007.85,424L2016,424C2020.41,424 2024,427.585 2024,432C2024,436.415 2020.41,440 2016,440L2007.85,440Z" style="fill:rgb(128,128,128);"/>
            <g transform="matrix(1,0,0,1,-180,-144)">
                <path d="M430.784,871.907C426.42,871.236 423.422,867.148 424.093,862.784C424.764,858.42 428.852,855.422 433.216,856.093C433.216,856.093 504.92,867.458 544.019,820.099C560.931,799.613 571.423,768.21 568.02,720.57C567.862,718.355 568.631,716.175 570.144,714.549C580.031,703.928 714.359,570.328 714.359,570.328C717.489,567.214 722.559,567.228 725.672,570.359C728.786,573.489 728.772,578.559 725.641,581.672C725.641,581.672 604.688,701.957 584.212,722.996C587.208,774.154 574.804,807.941 556.357,830.285C511.959,884.063 430.784,871.907 430.784,871.907Z" style="fill:rgb(0,21,255);"/>
            </g>
            <g transform="matrix(1,0,0,1,108,-144)">
                <path d="M430.784,871.907C426.42,871.236 423.422,867.148 424.093,862.784C424.764,858.42 428.852,855.422 433.216,856.093C433.216,856.093 504.92,867.458 544.019,820.099C560.931,799.613 571.423,768.21 568.02,720.57C567.862,718.355 568.631,716.175 570.144,714.549C580.031,703.928 714.359,570.328 714.359,570.328C717.489,567.214 722.559,567.228 725.672,570.359C728.786,573.489 728.772,578.559 725.641,581.672C725.641,581.672 604.688,701.957 584.212,722.996C587.208,774.154 574.804,807.941 556.357,830.285C511.959,884.063 430.784,871.907 430.784,871.907Z" style="fill:rgb(0,21,255);"/>
            </g>
            <g transform="matrix(1,0,0,1,396,-144)">
                <path d="M430.784,871.907C426.42,871.236 423.422,867.148 424.093,862.784C424.764,858.42 428.852,855.422 433.216,856.093C433.216,856.093 504.92,867.458 544.019,820.099C560.931,799.613 571.423,768.21 568.02,720.57C567.862,718.355 568.631,716.175 570.144,714.549C580.031,703.928 714.359,570.328 714.359,570.328C717.489,567.214 722.559,567.228 725.672,570.359C728.786,573.489 728.772,578.559 725.641,581.672C725.641,581.672 604.688,701.957 584.212,722.996C587.208,774.154 574.804,807.941 556.357,830.285C511.959,884.063 430.784,871.907 430.784,871.907Z" style="fill:rgb(0,21,255);"/>
            </g>
            <g transform="matrix(1,0,0,1,684,-145.185)">
                <path d="M430.784,871.907C426.42,871.236 423.422,867.148 424.093,862.784C424.764,858.42 428.852,855.422 433.216,856.093C433.216,856.093 504.92,867.458 544.019,820.099C560.931,799.613 571.423,768.21 568.02,720.57C567.862,718.355 568.631,716.175 570.144,714.549C580.031,703.928 714.359,570.328 714.359,570.328C717.489,567.214 722.559,567.228 725.672,570.359C728.786,573.489 728.772,578.559 725.641,581.672C725.641,581.672 604.688,701.957 584.212,722.996C587.208,774.154 574.804,807.941 556.357,830.285C511.959,884.063 430.784,871.907 430.784,871.907Z" style="fill:rgb(0,21,255);"/>
            </g>
            <g transform="matrix(1,0,0,1,972,-145.185)">
                <path d="M430.784,871.907C426.42,871.236 423.422,867.148 424.093,862.784C424.764,858.42 428.852,855.422 433.216,856.093C433.216,856.093 504.92,867.458 544.019,820.099C560.931,799.613 571.423,768.21 568.02,720.57C567.862,718.355 568.631,716.175 570.144,714.549C580.031,703.928 714.359,570.328 714.359,570.328C717.489,567.214 722.559,567.228 725.672,570.359C728.786,573.489 728.772,578.559 725.641,581.672C725.641,581.672 604.688,701.957 584.212,722.996C587.208,774.154 574.804,807.941 556.357,830.285C511.959,884.063 430.784,871.907 430.784,871.907Z" style="fill:rgb(0,21,255);"/>
            </g>
            <g transform="matrix(1,0,0,1,1260,-145.185)">
                <path d="M430.784,871.907C426.42,871.236 423.422,867.148 424.093,862.784C424.764,858.42 428.852,855.422 433.216,856.093C433.216,856.093 504.92,867.458 544.019,820.099C560.931,799.613 571.423,768.21 568.02,720.57C567.862,718.355 568.631,716.175 570.144,714.549C580.031,703.928 714.359,570.328 714.359,570.328C717.489,567.214 722.559,567.228 725.672,570.359C728.786,573.489 728.772,578.559 725.641,581.672C725.641,581.672 604.688,701.957 584.212,722.996C587.208,774.154 574.804,807.941 556.357,830.285C511.959,884.063 430.784,871.907 430.784,871.907Z" style="fill:rgb(0,21,255);"/>
            </g>
            <path d="M532,432.689C532,428.273 535.585,424.689 540,424.689C544.415,424.689 548,428.273 548,432.689L548,720C548,724.415 544.415,728 540,728C535.585,728 532,724.415 532,720L532,432.689Z" style="fill:rgb(0,21,255);"/>
            <path d="M532,432.689C532,428.273 535.585,424.689 540,424.689C544.415,424.689 548,428.273 548,432.689L548,720C548,724.415 544.415,728 540,728C535.585,728 532,724.415 532,720L532,432.689Z" style="fill:rgb(0,21,255);"/>
            <g transform="matrix(1,0,0,1,288,-2.53179)">
                <path d="M532,432.689C532,428.273 535.585,424.689 540,424.689C544.415,424.689 548,428.273 548,432.689L548,720C548,724.415 544.415,728 540,728C535.585,728 532,724.415 532,720L532,432.689Z" style="fill:rgb(0,21,255);"/>
            </g>
            <g transform="matrix(1,0,0,1,576,0)">
                <path d="M532,432.689C532,428.273 535.585,424.689 540,424.689C544.415,424.689 548,428.273 548,432.689L548,720C548,724.415 544.415,728 540,728C535.585,728 532,724.415 532,720L532,432.689Z" style="fill:rgb(0,21,255);"/>
            </g>
            <g transform="matrix(1,0,0,1,864,-2.53179)">
                <path d="M532,432.689C532,428.273 535.585,424.689 540,424.689C544.415,424.689 548,428.273 548,432.689L548,720C548,724.415 544.415,728 540,728C535.585,728 532,724.415 532,720L532,432.689Z" style="fill:rgb(0,21,255);"/>
            </g>
            <path d="M1696.75,706.524C1699.66,709.66 1699.6,714.573 1696.55,717.625C1695.65,718.517 1694.91,719.194 1694.35,719.631L1692.35,720.853L1690.35,721.489L1688.37,721.627L1685.81,721.091L1683.48,719.735L1681.73,717.739L1680.69,715.379C1680.38,714.278 1680.19,711.641 1680.64,706.902C1681.83,694.545 1685.94,660.205 1684.62,579.809C1683.25,496.594 1681.76,463.193 1681.92,447.464C1682.05,434.897 1683.27,431.78 1685.81,426.626C1687.75,422.664 1692.55,421.029 1696.51,422.978C1700.48,424.927 1702.11,429.725 1700.16,433.688C1698.47,437.121 1698.01,439.257 1697.92,447.629C1697.76,463.307 1699.26,496.6 1700.62,579.546C1701.89,657.568 1698.12,692.735 1696.75,706.524Z" style="fill:rgb(0,21,255);"/>
            <g transform="matrix(1,0,0,1,-168,-142.157)">
                <path d="M430.784,871.907C426.42,871.236 423.422,867.148 424.093,862.784C424.764,858.42 428.852,855.422 433.216,856.093C433.216,856.093 504.92,867.458 544.019,820.099C560.931,799.613 571.423,768.21 568.02,720.57C567.862,718.355 568.631,716.175 570.144,714.549C580.031,703.928 714.359,570.328 714.359,570.328C717.489,567.214 722.559,567.228 725.672,570.359C728.786,573.489 728.772,578.559 725.641,581.672C725.641,581.672 604.688,701.957 584.212,722.996C587.208,774.154 574.804,807.941 556.357,830.285C511.959,884.063 430.784,871.907 430.784,871.907Z" style="fill:rgb(255,0,242);"/>
            </g>
            <g transform="matrix(1,0,0,1,120,-142.157)">
                <path d="M430.784,871.907C426.42,871.236 423.422,867.148 424.093,862.784C424.764,858.42 428.852,855.422 433.216,856.093C433.216,856.093 504.92,867.458 544.019,820.099C560.931,799.613 571.423,768.21 568.02,720.57C567.862,718.355 568.631,716.175 570.144,714.549C580.031,703.928 714.359,570.328 714.359,570.328C717.489,567.214 722.559,567.228 725.672,570.359C728.786,573.489 728.772,578.559 725.641,581.672C725.641,581.672 604.688,701.957 584.212,722.996C587.208,774.154 574.804,807.941 556.357,830.285C511.959,884.063 430.784,871.907 430.784,871.907Z" style="fill:rgb(255,0,242);"/>
            </g>
            <g transform="matrix(1,0,0,1,408,-142.157)">
                <path d="M430.784,871.907C426.42,871.236 423.422,867.148 424.093,862.784C424.764,858.42 428.852,855.422 433.216,856.093C433.216,856.093 504.92,867.458 544.019,820.099C560.931,799.613 571.423,768.21 568.02,720.57C567.862,718.355 568.631,716.175 570.144,714.549C580.031,703.928 714.359,570.328 714.359,570.328C717.489,567.214 722.559,567.228 725.672,570.359C728.786,573.489 728.772,578.559 725.641,581.672C725.641,581.672 604.688,701.957 584.212,722.996C587.208,774.154 574.804,807.941 556.357,830.285C511.959,884.063 430.784,871.907 430.784,871.907Z" style="fill:rgb(255,0,242);"/>
            </g>
            <g transform="matrix(1,0,0,1,696,-143.342)">
                <path d="M430.784,871.907C426.42,871.236 423.422,867.148 424.093,862.784C424.764,858.42 428.852,855.422 433.216,856.093C433.216,856.093 504.92,867.458 544.019,820.099C560.931,799.613 571.423,768.21 568.02,720.57C567.862,718.355 568.631,716.175 570.144,714.549C580.031,703.928 714.359,570.328 714.359,570.328C717.489,567.214 722.559,567.228 725.672,570.359C728.786,573.489 728.772,578.559 725.641,581.672C725.641,581.672 604.688,701.957 584.212,722.996C587.208,774.154 574.804,807.941 556.357,830.285C511.959,884.063 430.784,871.907 430.784,871.907Z" style="fill:rgb(255,0,242);"/>
            </g>
            <g transform="matrix(1,0,0,1,984,-143.342)">
                <path d="M430.784,871.907C426.42,871.236 423.422,867.148 424.093,862.784C424.764,858.42 428.852,855.422 433.216,856.093C433.216,856.093 504.92,867.458 544.019,820.099C560.931,799.613 571.423,768.21 568.02,720.57C567.862,718.355 568.631,716.175 570.144,714.549C580.031,703.928 714.359,570.328 714.359,570.328C717.489,567.214 722.559,567.228 725.672,570.359C728.786,573.489 728.772,578.559 725.641,581.672C725.641,581.672 604.688,701.957 584.212,722.996C587.208,774.154 574.804,807.941 556.357,830.285C511.959,884.063 430.784,871.907 430.784,871.907Z" style="fill:rgb(255,0,242);"/>
            </g>
            <g transform="matrix(1,0,0,1,1272,-143.342)">
                <path d="M430.784,871.907C426.42,871.236 423.422,867.148 424.093,862.784C424.764,858.42 428.852,855.422 433.216,856.093C433.216,856.093 504.92,867.458 544.019,820.099C560.931,799.613 571.423,768.21 568.02,720.57C567.862,718.355 568.631,716.175 570.144,714.549C580.031,703.928 714.359,570.328 714.359,570.328C717.489,567.214 722.559,567.228 725.672,570.359C728.786,573.489 728.772,578.559 725.641,581.672C725.641,581.672 604.688,701.957 584.212,722.996C587.208,774.154 574.804,807.941 556.357,830.285C511.959,884.063 430.784,871.907 430.784,871.907Z" style="fill:rgb(255,0,242);"/>
            </g>
            <g transform="matrix(1,0,0,1,12,1.84316)">
                <path d="M532,432.689C532,428.273 535.585,424.689 540,424.689C544.415,424.689 548,428.273 548,432.689L548,720C548,724.415 544.415,728 540,728C535.585,728 532,724.415 532,720L532,432.689Z" style="fill:rgb(255,0,242);"/>
            </g>
            <g transform="matrix(1,0,0,1,12,1.84316)">
                <path d="M532,432.689C532,428.273 535.585,424.689 540,424.689C544.415,424.689 548,428.273 548,432.689L548,720C548,724.415 544.415,728 540,728C535.585,728 532,724.415 532,720L532,432.689Z" style="fill:rgb(255,0,242);"/>
            </g>
            <g transform="matrix(1,0,0,1,300,-0.688633)">
                <path d="M532,432.689C532,428.273 535.585,424.689 540,424.689C544.415,424.689 548,428.273 548,432.689L548,720C548,724.415 544.415,728 540,728C535.585,728 532,724.415 532,720L532,432.689Z" style="fill:rgb(255,0,242);"/>
            </g>
            <g transform="matrix(1,0,0,1,588,1.84316)">
                <path d="M532,432.689C532,428.273 535.585,424.689 540,424.689C544.415,424.689 548,428.273 548,432.689L548,720C548,724.415 544.415,728 540,728C535.585,728 532,724.415 532,720L532,432.689Z" style="fill:rgb(255,0,242);"/>
            </g>
            <g transform="matrix(1,0,0,1,876,-0.688633)">
                <path d="M532,432.689C532,428.273 535.585,424.689 540,424.689C544.415,424.689 548,428.273 548,432.689L548,720C548,724.415 544.415,728 540,728C535.585,728 532,724.415 532,720L532,432.689Z" style="fill:rgb(255,0,242);"/>
            </g>
            <g transform="matrix(1,0,0,1,12,1.84316)">
                <path d="M1696.75,706.524C1699.66,709.66 1699.6,714.573 1696.55,717.625C1695.65,718.517 1694.91,719.194 1694.35,719.631L1692.35,720.853L1690.35,721.489L1688.37,721.627L1685.81,721.091L1683.48,719.735L1681.73,717.739L1680.69,715.379C1680.38,714.278 1680.19,711.641 1680.64,706.902C1681.83,694.545 1685.94,660.205 1684.62,579.809C1683.25,496.594 1681.76,463.193 1681.92,447.464C1682.05,434.897 1683.27,431.78 1685.81,426.626C1687.75,422.664 1692.55,421.029 1696.51,422.978C1700.48,424.927 1702.11,429.725 1700.16,433.688C1698.47,437.121 1698.01,439.257 1697.92,447.629C1697.76,463.307 1699.26,496.6 1700.62,579.546C1701.89,657.568 1698.12,692.735 1696.75,706.524Z" style="fill:rgb(255,0,242);"/>
            </g>
            <g transform="matrix(1,0,0,1,-156,-142.157)">
                <path d="M430.784,871.907C426.42,871.236 423.422,867.148 424.093,862.784C424.764,858.42 428.852,855.422 433.216,856.093C433.216,856.093 504.92,867.458 544.019,820.099C560.931,799.613 571.423,768.21 568.02,720.57C567.862,718.355 568.631,716.175 570.144,714.549C580.031,703.928 714.359,570.328 714.359,570.328C717.489,567.214 722.559,567.228 725.672,570.359C728.786,573.489 728.772,578.559 725.641,581.672C725.641,581.672 604.688,701.957 584.212,722.996C587.208,774.154 574.804,807.941 556.357,830.285C511.959,884.063 430.784,871.907 430.784,871.907Z" style="fill:rgb(0,217,255);"/>
            </g>
            <g transform="matrix(1,0,0,1,132,-142.157)">
                <path d="M430.784,871.907C426.42,871.236 423.422,867.148 424.093,862.784C424.764,858.42 428.852,855.422 433.216,856.093C433.216,856.093 504.92,867.458 544.019,820.099C560.931,799.613 571.423,768.21 568.02,720.57C567.862,718.355 568.631,716.175 570.144,714.549C580.031,703.928 714.359,570.328 714.359,570.328C717.489,567.214 722.559,567.228 725.672,570.359C728.786,573.489 728.772,578.559 725.641,581.672C725.641,581.672 604.688,701.957 584.212,722.996C587.208,774.154 574.804,807.941 556.357,830.285C511.959,884.063 430.784,871.907 430.784,871.907Z" style="fill:rgb(0,217,255);"/>
            </g>
            <g transform="matrix(1,0,0,1,420,-142.157)">
                <path d="M430.784,871.907C426.42,871.236 423.422,867.148 424.093,862.784C424.764,858.42 428.852,855.422 433.216,856.093C433.216,856.093 504.92,867.458 544.019,820.099C560.931,799.613 571.423,768.21 568.02,720.57C567.862,718.355 568.631,716.175 570.144,714.549C580.031,703.928 714.359,570.328 714.359,570.328C717.489,567.214 722.559,567.228 725.672,570.359C728.786,573.489 728.772,578.559 725.641,581.672C725.641,581.672 604.688,701.957 584.212,722.996C587.208,774.154 574.804,807.941 556.357,830.285C511.959,884.063 430.784,871.907 430.784,871.907Z" style="fill:rgb(0,217,255);"/>
            </g>
            <g transform="matrix(1,0,0,1,708,-143.342)">
                <path d="M430.784,871.907C426.42,871.236 423.422,867.148 424.093,862.784C424.764,858.42 428.852,855.422 433.216,856.093C433.216,856.093 504.92,867.458 544.019,820.099C560.931,799.613 571.423,768.21 568.02,720.57C567.862,718.355 568.631,716.175 570.144,714.549C580.031,703.928 714.359,570.328 714.359,570.328C717.489,567.214 722.559,567.228 725.672,570.359C728.786,573.489 728.772,578.559 725.641,581.672C725.641,581.672 604.688,701.957 584.212,722.996C587.208,774.154 574.804,807.941 556.357,830.285C511.959,884.063 430.784,871.907 430.784,871.907Z" style="fill:rgb(0,217,255);"/>
            </g>
            <g transform="matrix(1,0,0,1,996,-143.342)">
                <path d="M430.784,871.907C426.42,871.236 423.422,867.148 424.093,862.784C424.764,858.42 428.852,855.422 433.216,856.093C433.216,856.093 504.92,867.458 544.019,820.099C560.931,799.613 571.423,768.21 568.02,720.57C567.862,718.355 568.631,716.175 570.144,714.549C580.031,703.928 714.359,570.328 714.359,570.328C717.489,567.214 722.559,567.228 725.672,570.359C728.786,573.489 728.772,578.559 725.641,581.672C725.641,581.672 604.688,701.957 584.212,722.996C587.208,774.154 574.804,807.941 556.357,830.285C511.959,884.063 430.784,871.907 430.784,871.907Z" style="fill:rgb(0,217,255);"/>
            </g>
            <g transform="matrix(1,0,0,1,1284,-143.342)">
                <path d="M430.784,871.907C426.42,871.236 423.422,867.148 424.093,862.784C424.764,858.42 428.852,855.422 433.216,856.093C433.216,856.093 504.92,867.458 544.019,820.099C560.931,799.613 571.423,768.21 568.02,720.57C567.862,718.355 568.631,716.175 570.144,714.549C580.031,703.928 714.359,570.328 714.359,570.328C717.489,567.214 722.559,567.228 725.672,570.359C728.786,573.489 728.772,578.559 725.641,581.672C725.641,581.672 604.688,701.957 584.212,722.996C587.208,774.154 574.804,807.941 556.357,830.285C511.959,884.063 430.784,871.907 430.784,871.907Z" style="fill:rgb(0,217,255);"/>
            </g>
            <g transform="matrix(1,0,0,1,24,1.84316)">
                <path d="M532,432.689C532,428.273 535.585,424.689 540,424.689C544.415,424.689 548,428.273 548,432.689L548,720C548,724.415 544.415,728 540,728C535.585,728 532,724.415 532,720L532,432.689Z" style="fill:rgb(0,217,255);"/>
            </g>
            <g transform="matrix(1,0,0,1,24,1.84316)">
                <path d="M532,432.689C532,428.273 535.585,424.689 540,424.689C544.415,424.689 548,428.273 548,432.689L548,720C548,724.415 544.415,728 540,728C535.585,728 532,724.415 532,720L532,432.689Z" style="fill:rgb(0,217,255);"/>
            </g>
            <g transform="matrix(1,0,0,1,312,-0.688633)">
                <path d="M532,432.689C532,428.273 535.585,424.689 540,424.689C544.415,424.689 548,428.273 548,432.689L548,720C548,724.415 544.415,728 540,728C535.585,728 532,724.415 532,720L532,432.689Z" style="fill:rgb(0,217,255);"/>
            </g>
            <g transform="matrix(1,0,0,1,600,1.84316)">
                <path d="M532,432.689C532,428.273 535.585,424.689 540,424.689C544.415,424.689 548,428.273 548,432.689L548,720C548,724.415 544.415,728 540,728C535.585,728 532,724.415 532,720L532,432.689Z" style="fill:rgb(0,217,255);"/>
            </g>
            <g transform="matrix(1,0,0,1,888,-0.688633)">
                <path d="M532,432.689C532,428.273 535.585,424.689 540,424.689C544.415,424.689 548,428.273 548,432.689L548,720C548,724.415 544.415,728 540,728C535.585,728 532,724.415 532,720L532,432.689Z" style="fill:rgb(0,217,255);"/>
            </g>
            <g transform="matrix(1,0,0,1,24,1.84316)">
                <path d="M1696.75,706.524C1699.66,709.66 1699.6,714.573 1696.55,717.625C1695.65,718.517 1694.91,719.194 1694.35,719.631L1692.35,720.853L1690.35,721.489L1688.37,721.627L1685.81,721.091L1683.48,719.735L1681.73,717.739L1680.69,715.379C1680.38,714.278 1680.19,711.641 1680.64,706.902C1681.83,694.545 1685.94,660.205 1684.62,579.809C1683.25,496.594 1681.76,463.193 1681.92,447.464C1682.05,434.897 1683.27,431.78 1685.81,426.626C1687.75,422.664 1692.55,421.029 1696.51,422.978C1700.48,424.927 1702.11,429.725 1700.16,433.688C1698.47,437.121 1698.01,439.257 1697.92,447.629C1697.76,463.307 1699.26,496.6 1700.62,579.546C1701.89,657.568 1698.12,692.735 1696.75,706.524Z" style="fill:rgb(0,217,255);"/>
            </g>
            <g transform="matrix(1,0,0,1,-144,-142.157)">
                <path d="M430.784,871.907C426.42,871.236 423.422,867.148 424.093,862.784C424.764,858.42 428.852,855.422 433.216,856.093C433.216,856.093 504.92,867.458 544.019,820.099C560.931,799.613 571.423,768.21 568.02,720.57C567.862,718.355 568.631,716.175 570.144,714.549C580.031,703.928 714.359,570.328 714.359,570.328C717.489,567.214 722.559,567.228 725.672,570.359C728.786,573.489 728.772,578.559 725.641,581.672C725.641,581.672 604.688,701.957 584.212,722.996C587.208,774.154 574.804,807.941 556.357,830.285C511.959,884.063 430.784,871.907 430.784,871.907Z" style="fill:rgb(0,70,255);"/>
            </g>
            <g transform="matrix(1,0,0,1,144,-142.157)">
                <path d="M430.784,871.907C426.42,871.236 423.422,867.148 424.093,862.784C424.764,858.42 428.852,855.422 433.216,856.093C433.216,856.093 504.92,867.458 544.019,820.099C560.931,799.613 571.423,768.21 568.02,720.57C567.862,718.355 568.631,716.175 570.144,714.549C580.031,703.928 714.359,570.328 714.359,570.328C717.489,567.214 722.559,567.228 725.672,570.359C728.786,573.489 728.772,578.559 725.641,581.672C725.641,581.672 604.688,701.957 584.212,722.996C587.208,774.154 574.804,807.941 556.357,830.285C511.959,884.063 430.784,871.907 430.784,871.907Z" style="fill:rgb(0,70,255);"/>
            </g>
            <g transform="matrix(1,0,0,1,432,-142.157)">
                <path d="M430.784,871.907C426.42,871.236 423.422,867.148 424.093,862.784C424.764,858.42 428.852,855.422 433.216,856.093C433.216,856.093 504.92,867.458 544.019,820.099C560.931,799.613 571.423,768.21 568.02,720.57C567.862,718.355 568.631,716.175 570.144,714.549C580.031,703.928 714.359,570.328 714.359,570.328C717.489,567.214 722.559,567.228 725.672,570.359C728.786,573.489 728.772,578.559 725.641,581.672C725.641,581.672 604.688,701.957 584.212,722.996C587.208,774.154 574.804,807.941 556.357,830.285C511.959,884.063 430.784,871.907 430.784,871.907Z" style="fill:rgb(0,70,255);"/>
            </g>
            <g transform="matrix(1,0,0,1,720,-143.342)">
                <path d="M430.784,871.907C426.42,871.236 423.422,867.148 424.093,862.784C424.764,858.42 428.852,855.422 433.216,856.093C433.216,856.093 504.92,867.458 544.019,820.099C560.931,799.613 571.423,768.21 568.02,720.57C567.862,718.355 568.631,716.175 570.144,714.549C580.031,703.928 714.359,570.328 714.359,570.328C717.489,567.214 722.559,567.228 725.672,570.359C728.786,573.489 728.772,578.559 725.641,581.672C725.641,581.672 604.688,701.957 584.212,722.996C587.208,774.154 574.804,807.941 556.357,830.285C511.959,884.063 430.784,871.907 430.784,871.907Z" style="fill:rgb(0,70,255);"/>
            </g>
            <g transform="matrix(1,0,0,1,1008,-143.342)">
                <path d="M430.784,871.907C426.42,871.236 423.422,867.148 424.093,862.784C424.764,858.42 428.852,855.422 433.216,856.093C433.216,856.093 504.92,867.458 544.019,820.099C560.931,799.613 571.423,768.21 568.02,720.57C567.862,718.355 568.631,716.175 570.144,714.549C580.031,703.928 714.359,570.328 714.359,570.328C717.489,567.214 722.559,567.228 725.672,570.359C728.786,573.489 728.772,578.559 725.641,581.672C725.641,581.672 604.688,701.957 584.212,722.996C587.208,774.154 574.804,807.941 556.357,830.285C511.959,884.063 430.784,871.907 430.784,871.907Z" style="fill:rgb(0,70,255);"/>
            </g>
            <g transform="matrix(1,0,0,1,1296,-143.342)">
                <path d="M430.784,871.907C426.42,871.236 423.422,867.148 424.093,862.784C424.764,858.42 428.852,855.422 433.216,856.093C433.216,856.093 504.92,867.458 544.019,820.099C560.931,799.613 571.423,768.21 568.02,720.57C567.862,718.355 568.631,716.175 570.144,714.549C580.031,703.928 714.359,570.328 714.359,570.328C717.489,567.214 722.559,567.228 725.672,570.359C728.786,573.489 728.772,578.559 725.641,581.672C725.641,581.672 604.688,701.957 584.212,722.996C587.208,774.154 574.804,807.941 556.357,830.285C511.959,884.063 430.784,871.907 430.784,871.907Z" style="fill:rgb(0,70,255);"/>
            </g>
            <g transform="matrix(1,0,0,1,36,1.84316)">
                <path d="M532,432.689C532,428.273 535.585,424.689 540,424.689C544.415,424.689 548,428.273 548,432.689L548,720C548,724.415 544.415,728 540,728C535.585,728 532,724.415 532,720L532,432.689Z" style="fill:rgb(0,70,255);"/>
            </g>
            <g transform="matrix(1,0,0,1,36,1.84316)">
                <path d="M532,432.689C532,428.273 535.585,424.689 540,424.689C544.415,424.689 548,428.273 548,432.689L548,720C548,724.415 544.415,728 540,728C535.585,728 532,724.415 532,720L532,432.689Z" style="fill:rgb(0,70,255);"/>
            </g>
            <g transform="matrix(1,0,0,1,324,-0.688633)">
                <path d="M532,432.689C532,428.273 535.585,424.689 540,424.689C544.415,424.689 548,428.273 548,432.689L548,720C548,724.415 544.415,728 540,728C535.585,728 532,724.415 532,720L532,432.689Z" style="fill:rgb(0,70,255);"/>
            </g>
            <g transform="matrix(1,0,0,1,612,1.84316)">
                <path d="M532,432.689C532,428.273 535.585,424.689 540,424.689C544.415,424.689 548,428.273 548,432.689L548,720C548,724.415 544.415,728 540,728C535.585,728 532,724.415 532,720L532,432.689Z" style="fill:rgb(0,70,255);"/>
            </g>
            <g transform="matrix(1,0,0,1,900,-0.688633)">
                <path d="M532,432.689C532,428.273 535.585,424.689 540,424.689C544.415,424.689 548,428.273 548,432.689L548,720C548,724.415 544.415,728 540,728C535.585,728 532,724.415 532,720L532,432.689Z" style="fill:rgb(0,70,255);"/>
            </g>
            <g transform="matrix(1,0,0,1,36,1.84316)">
                <path d="M1696.75,706.524C1699.66,709.66 1699.6,714.573 1696.55,717.625C1695.65,718.517 1694.91,719.194 1694.35,719.631L1692.35,720.853L1690.35,721.489L1688.37,721.627L1685.81,721.091L1683.48,719.735L1681.73,717.739L1680.69,715.379C1680.38,714.278 1680.19,711.641 1680.64,706.902C1681.83,694.545 1685.94,660.205 1684.62,579.809C1683.25,496.594 1681.76,463.193 1681.92,447.464C1682.05,434.897 1683.27,431.78 1685.81,426.626C1687.75,422.664 1692.55,421.029 1696.51,422.978C1700.48,424.927 1702.11,429.725 1700.16,433.688C1698.47,437.121 1698.01,439.257 1697.92,447.629C1697.76,463.307 1699.26,496.6 1700.62,579.546C1701.89,657.568 1698.12,692.735 1696.75,706.524Z" style="fill:rgb(0,70,255);"/>
            </g>
            <g transform="matrix(1,0,0,1,-132,-142.157)">
                <path d="M430.784,871.907C426.42,871.236 423.422,867.148 424.093,862.784C424.764,858.42 428.852,855.422 433.216,856.093C433.216,856.093 504.92,867.458 544.019,820.099C560.931,799.613 571.423,768.21 568.02,720.57C567.862,718.355 568.631,716.175 570.144,714.549C580.031,703.928 714.359,570.328 714.359,570.328C717.489,567.214 722.559,567.228 725.672,570.359C728.786,573.489 728.772,578.559 725.641,581.672C725.641,581.672 604.688,701.957 584.212,722.996C587.208,774.154 574.804,807.941 556.357,830.285C511.959,884.063 430.784,871.907 430.784,871.907Z" style="fill:rgb(0,255,158);"/>
            </g>
            <g transform="matrix(1,0,0,1,156,-142.157)">
                <path d="M430.784,871.907C426.42,871.236 423.422,867.148 424.093,862.784C424.764,858.42 428.852,855.422 433.216,856.093C433.216,856.093 504.92,867.458 544.019,820.099C560.931,799.613 571.423,768.21 568.02,720.57C567.862,718.355 568.631,716.175 570.144,714.549C580.031,703.928 714.359,570.328 714.359,570.328C717.489,567.214 722.559,567.228 725.672,570.359C728.786,573.489 728.772,578.559 725.641,581.672C725.641,581.672 604.688,701.957 584.212,722.996C587.208,774.154 574.804,807.941 556.357,830.285C511.959,884.063 430.784,871.907 430.784,871.907Z" style="fill:rgb(0,255,158);"/>
            </g>
            <g transform="matrix(1,0,0,1,444,-142.157)">
                <path d="M430.784,871.907C426.42,871.236 423.422,867.148 424.093,862.784C424.764,858.42 428.852,855.422 433.216,856.093C433.216,856.093 504.92,867.458 544.019,820.099C560.931,799.613 571.423,768.21 568.02,720.57C567.862,718.355 568.631,716.175 570.144,714.549C580.031,703.928 714.359,570.328 714.359,570.328C717.489,567.214 722.559,567.228 725.672,570.359C728.786,573.489 728.772,578.559 725.641,581.672C725.641,581.672 604.688,701.957 584.212,722.996C587.208,774.154 574.804,807.941 556.357,830.285C511.959,884.063 430.784,871.907 430.784,871.907Z" style="fill:rgb(0,255,158);"/>
            </g>
            <g transform="matrix(1,0,0,1,732,-143.342)">
                <path d="M430.784,871.907C426.42,871.236 423.422,867.148 424.093,862.784C424.764,858.42 428.852,855.422 433.216,856.093C433.216,856.093 504.92,867.458 544.019,820.099C560.931,799.613 571.423,768.21 568.02,720.57C567.862,718.355 568.631,716.175 570.144,714.549C580.031,703.928 714.359,570.328 714.359,570.328C717.489,567.214 722.559,567.228 725.672,570.359C728.786,573.489 728.772,578.559 725.641,581.672C725.641,581.672 604.688,701.957 584.212,722.996C587.208,774.154 574.804,807.941 556.357,830.285C511.959,884.063 430.784,871.907 430.784,871.907Z" style="fill:rgb(0,255,158);"/>
            </g>
            <g transform="matrix(1,0,0,1,1020,-143.342)">
                <path d="M430.784,871.907C426.42,871.236 423.422,867.148 424.093,862.784C424.764,858.42 428.852,855.422 433.216,856.093C433.216,856.093 504.92,867.458 544.019,820.099C560.931,799.613 571.423,768.21 568.02,720.57C567.862,718.355 568.631,716.175 570.144,714.549C580.031,703.928 714.359,570.328 714.359,570.328C717.489,567.214 722.559,567.228 725.672,570.359C728.786,573.489 728.772,578.559 725.641,581.672C725.641,581.672 604.688,701.957 584.212,722.996C587.208,774.154 574.804,807.941 556.357,830.285C511.959,884.063 430.784,871.907 430.784,871.907Z" style="fill:rgb(0,255,158);"/>
            </g>
            <g transform="matrix(1,0,0,1,1308,-143.342)">
                <path d="M430.784,871.907C426.42,871.236 423.422,867.148 424.093,862.784C424.764,858.42 428.852,855.422 433.216,856.093C433.216,856.093 504.92,867.458 544.019,820.099C560.931,799.613 571.423,768.21 568.02,720.57C567.862,718.355 568.631,716.175 570.144,714.549C580.031,703.928 714.359,570.328 714.359,570.328C717.489,567.214 722.559,567.228 725.672,570.359C728.786,573.489 728.772,578.559 725.641,581.672C725.641,581.672 604.688,701.957 584.212,722.996C587.208,774.154 574.804,807.941 556.357,830.285C511.959,884.063 430.784,871.907 430.784,871.907Z" style="fill:rgb(0,255,158);"/>
            </g>
            <g transform="matrix(1,0,0,1,48,1.84316)">
                <path d="M532,432.689C532,428.273 535.585,424.689 540,424.689C544.415,424.689 548,428.273 548,432.689L548,720C548,724.415 544.415,728 540,728C535.585,728 532,724.415 532,720L532,432.689Z" style="fill:rgb(0,255,158);"/>
            </g>
            <g transform="matrix(1,0,0,1,48,1.84316)">
                <path d="M532,432.689C532,428.273 535.585,424.689 540,424.689C544.415,424.689 548,428.273 548,432.689L548,720C548,724.415 544.415,728 540,728C535.585,728 532,724.415 532,720L532,432.689Z" style="fill:rgb(0,255,158);"/>
            </g>
            <g transform="matrix(1,0,0,1,336,-0.688633)">
                <path d="M532,432.689C532,428.273 535.585,424.689 540,424.689C544.415,424.689 548,428.273 548,432.689L548,720C548,724.415 544.415,728 540,728C535.585,728 532,724.415 532,720L532,432.689Z" style="fill:rgb(0,255,158);"/>
            </g>
            <g transform="matrix(1,0,0,1,624,1.84316)">
                <path d="M532,432.689C532,428.273 535.585,424.689 540,424.689C544.415,424.689 548,428.273 548,432.689L548,720C548,724.415 544.415,728 540,728C535.585,728 532,724.415 532,720L532,432.689Z" style="fill:rgb(0,255,158);"/>
            </g>
            <g transform="matrix(1,0,0,1,912,-0.688633)">
                <path d="M532,432.689C532,428.273 535.585,424.689 540,424.689C544.415,424.689 548,428.273 548,432.689L548,720C548,724.415 544.415,728 540,728C535.585,728 532,724.415 532,720L532,432.689Z" style="fill:rgb(0,255,158);"/>
            </g>
            <g transform="matrix(1,0,0,1,48,1.84316)">
                <path d="M1696.75,706.524C1699.66,709.66 1699.6,714.573 1696.55,717.625C1695.65,718.517 1694.91,719.194 1694.35,719.631L1692.35,720.853L1690.35,721.489L1688.37,721.627L1685.81,721.091L1683.48,719.735L1681.73,717.739L1680.69,715.379C1680.38,714.278 1680.19,711.641 1680.64,706.902C1681.83,694.545 1685.94,660.205 1684.62,579.809C1683.25,496.594 1681.76,463.193 1681.92,447.464C1682.05,434.897 1683.27,431.78 1685.81,426.626C1687.75,422.664 1692.55,421.029 1696.51,422.978C1700.48,424.927 1702.11,429.725 1700.16,433.688C1698.47,437.121 1698.01,439.257 1697.92,447.629C1697.76,463.307 1699.26,496.6 1700.62,579.546C1701.89,657.568 1698.12,692.735 1696.75,706.524Z" style="fill:rgb(0,255,158);"/>
            </g>
            <g transform="matrix(1,0,0,1,-120,-142.157)">
                <path d="M430.784,871.907C426.42,871.236 423.422,867.148 424.093,862.784C424.764,858.42 428.852,855.422 433.216,856.093C433.216,856.093 504.92,867.458 544.019,820.099C560.931,799.613 571.423,768.21 568.02,720.57C567.862,718.355 568.631,716.175 570.144,714.549C580.031,703.928 714.359,570.328 714.359,570.328C717.489,567.214 722.559,567.228 725.672,570.359C728.786,573.489 728.772,578.559 725.641,581.672C725.641,581.672 604.688,701.957 584.212,722.996C587.208,774.154 574.804,807.941 556.357,830.285C511.959,884.063 430.784,871.907 430.784,871.907Z" style="fill:rgb(255,0,94);"/>
            </g>
            <g transform="matrix(1,0,0,1,168,-142.157)">
                <path d="M430.784,871.907C426.42,871.236 423.422,867.148 424.093,862.784C424.764,858.42 428.852,855.422 433.216,856.093C433.216,856.093 504.92,867.458 544.019,820.099C560.931,799.613 571.423,768.21 568.02,720.57C567.862,718.355 568.631,716.175 570.144,714.549C580.031,703.928 714.359,570.328 714.359,570.328C717.489,567.214 722.559,567.228 725.672,570.359C728.786,573.489 728.772,578.559 725.641,581.672C725.641,581.672 604.688,701.957 584.212,722.996C587.208,774.154 574.804,807.941 556.357,830.285C511.959,884.063 430.784,871.907 430.784,871.907Z" style="fill:rgb(255,0,94);"/>
            </g>
            <g transform="matrix(1,0,0,1,456,-142.157)">
                <path d="M430.784,871.907C426.42,871.236 423.422,867.148 424.093,862.784C424.764,858.42 428.852,855.422 433.216,856.093C433.216,856.093 504.92,867.458 544.019,820.099C560.931,799.613 571.423,768.21 568.02,720.57C567.862,718.355 568.631,716.175 570.144,714.549C580.031,703.928 714.359,570.328 714.359,570.328C717.489,567.214 722.559,567.228 725.672,570.359C728.786,573.489 728.772,578.559 725.641,581.672C725.641,581.672 604.688,701.957 584.212,722.996C587.208,774.154 574.804,807.941 556.357,830.285C511.959,884.063 430.784,871.907 430.784,871.907Z" style="fill:rgb(255,0,94);"/>
            </g>
            <g transform="matrix(1,0,0,1,744,-143.342)">
                <path d="M430.784,871.907C426.42,871.236 423.422,867.148 424.093,862.784C424.764,858.42 428.852,855.422 433.216,856.093C433.216,856.093 504.92,867.458 544.019,820.099C560.931,799.613 571.423,768.21 568.02,720.57C567.862,718.355 568.631,716.175 570.144,714.549C580.031,703.928 714.359,570.328 714.359,570.328C717.489,567.214 722.559,567.228 725.672,570.359C728.786,573.489 728.772,578.559 725.641,581.672C725.641,581.672 604.688,701.957 584.212,722.996C587.208,774.154 574.804,807.941 556.357,830.285C511.959,884.063 430.784,871.907 430.784,871.907Z" style="fill:rgb(255,0,94);"/>
            </g>
            <g transform="matrix(1,0,0,1,1032,-143.342)">
                <path d="M430.784,871.907C426.42,871.236 423.422,867.148 424.093,862.784C424.764,858.42 428.852,855.422 433.216,856.093C433.216,856.093 504.92,867.458 544.019,820.099C560.931,799.613 571.423,768.21 568.02,720.57C567.862,718.355 568.631,716.175 570.144,714.549C580.031,703.928 714.359,570.328 714.359,570.328C717.489,567.214 722.559,567.228 725.672,570.359C728.786,573.489 728.772,578.559 725.641,581.672C725.641,581.672 604.688,701.957 584.212,722.996C587.208,774.154 574.804,807.941 556.357,830.285C511.959,884.063 430.784,871.907 430.784,871.907Z" style="fill:rgb(255,0,94);"/>
            </g>
            <g transform="matrix(1,0,0,1,1320,-143.342)">
                <path d="M430.784,871.907C426.42,871.236 423.422,867.148 424.093,862.784C424.764,858.42 428.852,855.422 433.216,856.093C433.216,856.093 504.92,867.458 544.019,820.099C560.931,799.613 571.423,768.21 568.02,720.57C567.862,718.355 568.631,716.175 570.144,714.549C580.031,703.928 714.359,570.328 714.359,570.328C717.489,567.214 722.559,567.228 725.672,570.359C728.786,573.489 728.772,578.559 725.641,581.672C725.641,581.672 604.688,701.957 584.212,722.996C587.208,774.154 574.804,807.941 556.357,830.285C511.959,884.063 430.784,871.907 430.784,871.907Z" style="fill:rgb(255,0,94);"/>
            </g>
            <g transform="matrix(1,0,0,1,60,1.84316)">
                <path d="M532,432.689C532,428.273 535.585,424.689 540,424.689C544.415,424.689 548,428.273 548,432.689L548,720C548,724.415 544.415,728 540,728C535.585,728 532,724.415 532,720L532,432.689Z" style="fill:rgb(255,0,94);"/>
            </g>
            <g transform="matrix(1,0,0,1,60,1.84316)">
                <path d="M532,432.689C532,428.273 535.585,424.689 540,424.689C544.415,424.689 548,428.273 548,432.689L548,720C548,724.415 544.415,728 540,728C535.585,728 532,724.415 532,720L532,432.689Z" style="fill:rgb(255,0,94);"/>
            </g>
            <g transform="matrix(1,0,0,1,348,-0.688633)">
                <path d="M532,432.689C532,428.273 535.585,424.689 540,424.689C544.415,424.689 548,428.273 548,432.689L548,720C548,724.415 544.415,728 540,728C535.585,728 532,724.415 532,720L532,432.689Z" style="fill:rgb(255,0,94);"/>
            </g>
            <g transform="matrix(1,0,0,1,636,1.84316)">
                <path d="M532,432.689C532,428.273 535.585,424.689 540,424.689C544.415,424.689 548,428.273 548,432.689L548,720C548,724.415 544.415,728 540,728C535.585,728 532,724.415 532,720L532,432.689Z" style="fill:rgb(255,0,94);"/>
            </g>
            <g transform="matrix(1,0,0,1,924,-0.688633)">
                <path d="M532,432.689C532,428.273 535.585,424.689 540,424.689C544.415,424.689 548,428.273 548,432.689L548,720C548,724.415 544.415,728 540,728C535.585,728 532,724.415 532,720L532,432.689Z" style="fill:rgb(255,0,94);"/>
            </g>
            <g transform="matrix(1,0,0,1,60,1.84316)">
                <path d="M1696.75,706.524C1699.66,709.66 1699.6,714.573 1696.55,717.625C1695.65,718.517 1694.91,719.194 1694.35,719.631L1692.35,720.853L1690.35,721.489L1688.37,721.627L1685.81,721.091L1683.48,719.735L1681.73,717.739L1680.69,715.379C1680.38,714.278 1680.19,711.641 1680.64,706.902C1681.83,694.545 1685.94,660.205 1684.62,579.809C1683.25,496.594 1681.76,463.193 1681.92,447.464C1682.05,434.897 1683.27,431.78 1685.81,426.626C1687.75,422.664 1692.55,421.029 1696.51,422.978C1700.48,424.927 1702.11,429.725 1700.16,433.688C1698.47,437.121 1698.01,439.257 1697.92,447.629C1697.76,463.307 1699.26,496.6 1700.62,579.546C1701.89,657.568 1698.12,692.735 1696.75,706.524Z" style="fill:rgb(255,0,94);"/>
            </g>
            <g transform="matrix(-0.0105105,-5.17904,5.17904,-0.0105105,-4856.85,4907.89)">
                <text class="label" x="684px" y="977.191px" style="font-family:'ArialMT', 'Arial', sans-serif;font-size:30px;">Link Utilization</text>
            </g>
            <g transform="matrix(0.42238,0,0,0.42238,595.768,1067.19)">
                <g transform="matrix(502.577,0,0,502.577,1948.71,1320)">
                </g>
                <text class="label" x="850.552px" y="1320px" style="font-family:'ArialMT', 'Arial', sans-serif;font-size:502.577px;"><tspan x="850.552px 1138.9px 1250.55px " y="1320px 1320px 1320px ">Tim</tspan>e</text>
            </g>
            <g transform="matrix(0.625916,0,0,0.625916,-148.846,-51.8978)">
                <text class="label" x="480px" y="344px" style="font-family:'ArialMT', 'Arial', sans-serif;font-size:268.041px;">TCP<tspan x="1011.24px 1085.71px " y="344px 344px "> G</tspan>lobal Synchronization</text>
            </g>
        </g>
    </g>
</svg>
